<svg id="Layer_1" data-name="Layer 1" xmlns="http://www.w3.org/2000/svg" xmlns:xlink="http://www.w3.org/1999/xlink" viewBox="0 0 202.37 148.37"><defs><style>.cls-1{fill:url(#linear-gradient);}.cls-2{fill:url(#linear-gradient-2);}</style><linearGradient id="linear-gradient" y1="74.55" x2="118.87" y2="74.55" gradientUnits="userSpaceOnUse"><stop offset="0" stop-color="#2c4655"/><stop offset="0.5" stop-color="#2196f3"/><stop offset="1" stop-color="#10cab7"/></linearGradient><linearGradient id="linear-gradient-2" x1="376.96" y1="285.4" x2="450.96" y2="285.4" xlink:href="#linear-gradient"/></defs><polygon class="cls-1" points="71.39 92.27 71.39 16.45 118.49 16.45 118.49 0.74 0 0.74 0 16.45 45.63 16.45 45.63 89.83 0.86 26.28 0.69 26.28 0.69 148.37 17.16 148.37 17.16 77.63 58.88 135.65 59.21 135.65 101.92 74.94 101.92 148.37 118.87 148.37 118.87 26.28 118.54 26.28 71.39 92.27"/><path class="cls-2" d="M439.88,221.09q-11.08-9.78-30.64-9.78H377V359.48h17V287.1h17.44q10.92,0,18.51-3.34a32.48,32.48,0,0,0,12.22-9,36.37,36.37,0,0,0,6.77-12.47A46.71,46.71,0,0,0,451,248.47Q451,230.88,439.88,221.09ZM433,255.48a22.33,22.33,0,0,1-3.58,7.17,18.78,18.78,0,0,1-7,5.63,25.21,25.21,0,0,1-11.17,2.2H393.91V227.77H412a24.35,24.35,0,0,1,10.59,2,19,19,0,0,1,6.77,5.22,19.9,19.9,0,0,1,3.58,6.84,22.37,22.37,0,0,1,0,13.61Z" transform="translate(-248.6 -211.31)"/></svg>