<svg id="Layer_1" data-name="Layer 1" xmlns="http://www.w3.org/2000/svg" xmlns:xlink="http://www.w3.org/1999/xlink" viewBox="0 0 323.04 119.84"><defs><style>.cls-1{fill:url(#linear-gradient);}.cls-2{fill:url(#linear-gradient-2);}.cls-3{fill:url(#linear-gradient-3);}</style><linearGradient id="linear-gradient" x1="232.44" y1="235.31" x2="309.72" y2="235.31" gradientUnits="userSpaceOnUse"><stop offset="0" stop-color="#2c4655"/><stop offset="0.5" stop-color="#2196f3"/><stop offset="1" stop-color="#10cab7"/></linearGradient><linearGradient id="linear-gradient-2" x1="334.04" y1="233.39" x2="450.04" y2="233.39" xlink:href="#linear-gradient"/><linearGradient id="linear-gradient-3" x1="482.84" y1="235.31" x2="555.47" y2="235.31" xlink:href="#linear-gradient"/></defs><path class="cls-1" d="M232.44,177.31h77.28v16.16H279v99.84H262.2V193.47H232.44Z" transform="translate(-232.44 -173.47)"/><path class="cls-2" d="M334,293.31V173.47h.16l61.44,87.19-7.2-1.44,61.28-85.75H450V293.31H433.4V211.39l1,8.48-42.88,61h-.32l-43.84-61L350.2,212v81.28Z" transform="translate(-232.44 -173.47)"/><path class="cls-3" d="M514.51,177.31q19.2,0,30.09,9.6t10.87,26.88a45.68,45.68,0,0,1-2.08,13.6,35.3,35.3,0,0,1-6.63,12.23,31.9,31.9,0,0,1-12,8.81q-7.44,3.27-18.16,3.27H499.47v41.61H482.84v-116Zm1.92,58.08a24.74,24.74,0,0,0,11-2.17,18.17,18.17,0,0,0,6.88-5.52,21.68,21.68,0,0,0,3.53-7,21.93,21.93,0,0,0,0-13.35,19.46,19.46,0,0,0-3.53-6.73,18.6,18.6,0,0,0-6.63-5.11,23.92,23.92,0,0,0-10.41-2H499.47v41.92Z" transform="translate(-232.44 -173.47)"/></svg>